<svg version="1.1" id="Layer_1" xmlns="http://www.w3.org/2000/svg" x="0" y="0" viewBox="0 0 249 65" xml:space="preserve"><style>.st0{fill:#fff}</style><path class="st0" d="M52.4 11.7l-3 7.3h6l-3-7.3zm6.8 16.8l-2.1-5.1h-9.6l-2.1 5.1h-5.1L50 5.7h4.6l9.7 22.8h-5.1zm16.1.4c-6.6 0-11.6-5.1-11.6-11.6v-.1c0-6.4 4.8-11.7 11.8-11.7 4.3 0 6.8 1.4 8.9 3.5l-3.2 3.6c-1.7-1.6-3.5-2.5-5.8-2.5-3.8 0-6.5 3.2-6.5 7v.1c0 3.9 2.7 7.1 6.5 7.1 2.6 0 4.2-1 5.9-2.6l3.2 3.2c-2.2 2.4-4.8 4-9.2 4m21.5 0c-6.6 0-11.6-5.1-11.6-11.6v-.1C85.2 10.7 90 5.5 97 5.5c4.3 0 6.8 1.4 8.9 3.5l-3.2 3.6c-1.7-1.6-3.5-2.5-5.8-2.5-3.8 0-6.6 3.2-6.6 7v.1c0 3.9 2.7 7.1 6.6 7.1 2.6 0 4.2-1 5.9-2.6l3.2 3.2c-2.3 2.4-4.8 4-9.2 4m28.7-.4V24h-12.2v-4.7h10.6v-4.4h-10.6v-4.6h12.1V5.9h-17.1v22.6zm10.8.3c-3.4 0-6.9-1.2-9.6-3.6l2.9-3.5c2 1.7 4.2 2.7 6.7 2.7 2 0 3.3-.8 3.3-2.1v-.1c0-1.3-.8-1.9-4.6-2.9-4.5-1.2-7.5-2.4-7.5-6.9v-.1c0-4.1 3.3-6.8 7.9-6.8 3.3 0 6.1 1 8.4 2.9l-2.6 3.7c-2-1.4-4-2.2-5.9-2.2-1.9 0-2.9.9-2.9 2v.1c0 1.5 1 2 4.9 3 4.6 1.2 7.2 2.8 7.2 6.8v.1c.1 4.4-3.4 6.9-8.2 6.9m18.6 0c-3.4 0-6.9-1.2-9.6-3.6l2.9-3.5c2 1.7 4.2 2.7 6.7 2.7 2 0 3.3-.8 3.3-2.1v-.1c0-1.3-.8-1.9-4.5-2.9-4.6-1.2-7.5-2.4-7.5-6.9v-.1c0-4.1 3.3-6.8 7.9-6.8 3.3 0 6.1 1 8.4 2.9l-2.6 3.7c-2-1.4-4-2.2-5.9-2.2-1.9 0-2.9.9-2.9 2v.1c0 1.5 1 2 4.9 3 4.6 1.2 7.2 2.8 7.2 6.8v.1c0 4.4-3.4 6.9-8.3 6.9M176 14.5c-2.6 0-5 2.2-5 5.5s2.3 5.5 5 5.5 4.9-2.1 4.9-5.5-2.2-5.5-4.9-5.5m.9 14.3c-2.8 0-4.6-1.4-5.8-3v2.6h-3.9V4.9h3.9v9.4c1.3-1.8 3-3.2 5.8-3.2 4 0 7.9 3.2 7.9 8.9s-3.8 8.8-7.9 8.8m22.5-7.6c-1-.4-2.4-.7-3.9-.7-2.5 0-3.9 1-3.9 2.7v.1c0 1.6 1.4 2.5 3.3 2.5 2.6 0 4.5-1.5 4.5-3.6v-1zm-.1 7.3v-2.1c-1.2 1.4-2.9 2.5-5.5 2.5-3.2 0-6.1-1.8-6.1-5.3v-.1c0-3.7 2.9-5.5 6.9-5.5 2.1 0 3.4.3 4.7.7v-.4c0-2.4-1.5-3.6-4.2-3.6-1.9 0-3.3.4-4.9 1.1l-1.1-3.1c1.9-.8 3.7-1.4 6.5-1.4 5 0 7.5 2.6 7.5 7.2v10.1h-3.8zm12.4 0h-3.9v-17h3.9v2.6c1.1-1.6 2.7-3 5.3-3 3.8 0 6.1 2.6 6.1 6.6v10.8h-3.9v-9.7c0-2.6-1.3-4.2-3.6-4.2s-3.8 1.6-3.8 4.2v9.7zm25-10.1l6.8-7h-4.7l-7.1 7.6V4.9h-3.9v23.6h3.9v-4.9l2.4-2.5 5.1 7.4h4.6zm9.6-7.2h.2c.2 0 .4-.1.4-.2 0-.2-.1-.3-.4-.3h-.2v.5zm0 1h-.4v-1.6h.6c.3 0 .4 0 .6.1.1.1.2.2.2.4s-.1.3-.3.4c.2.1.2.2.3.4.1.2.1.4.1.4h-.4c-.1-.1-.1-.2-.1-.4s-.1-.3-.3-.3h-.2v.6zm-1-.9c0 .7.5 1.3 1.3 1.3.7 0 1.3-.6 1.3-1.3 0-.7-.5-1.3-1.3-1.3s-1.3.6-1.3 1.3m2.9 0c0 .9-.7 1.7-1.7 1.7-.9 0-1.7-.7-1.7-1.7 0-.9.8-1.6 1.7-1.6 1 0 1.7.7 1.7 1.6M18 29.9h5.9c3.1 0 5.5-2.5 5.5-5.5v-8.1C16.8 14 15.8 21.6 18 29.9M23.9.7H6.4c-.6 0-1.2.1-1.7.3 4.1-.3 11.9 2.5 24.8 9.9V6.2c0-3-2.5-5.5-5.6-5.5M.9 24.4c0 3.1 2.5 5.5 5.5 5.5h6.3C7.2 21.7 1.9 12.7.9 6.9"/><path class="st0" d="M6.9.8C3.6.8 1 3.4 1 6.7v17.2c0 3.3 2.6 5.9 5.9 5.9h16.6c3.3 0 5.9-2.6 5.9-5.9V6.7c0-3.3-2.6-5.9-5.9-5.9H6.9zM23.5 30H6.9C3.5 30 .8 27.3.8 23.9V6.7C.8 3.3 3.5.6 6.9.6h16.6c3.4 0 6.1 2.7 6.1 6.1v17.2c0 3.4-2.8 6.1-6.1 6.1m173.4 24.4c.2 0 .6 0 .8-.1.2-.1.4-.3.5-.5.1-.2.2-.5.2-.8 0-.3-.4-.9-.9-.9-.2 0-.5.1-.7.2-.2.2-.5.4-.6.7-.1.2-.1.4-.1.6 0 .1.2.8.8.8zm-12.5.1c.3 0 .5-.1.6-.3.2-.2.3-.5.4-.8.2-.5.5-.9.7-1.4.5-.9 1-1.7 1.7-2.6.6-.8 1.3-1.5 2.1-2.1.4-.3.8-.6 1.3-.8.1 0 .2-.1.3-.1.2 0 .3.1.3.4 0 .1-.1.3-.1.4-.2.5-.4 1-.7 1.4-.3.5-.5 1-.8 1.5-.2.5-.3 1-.3 1.6 0 .5.1 1 .4 1.3.4.5 1 .7 1.6.7.4 0 .7-.1 1.1-.2 1-.4 1.8-1.2 2.4-2.1.3-.4.7-1 1-1.4.2-.3.4-.7.6-1.1.1-.3.1-.4.1-.5 0-.4-.3-.8-.7-.7-.3 0-.5.1-.6.3-.2.3-.3.5-.4.7-.5.9-1 1.9-1.8 2.6-.4.3-1 .9-1.5.9-.3 0-.5-.3-.5-.6v-.2c.2-1 .8-2 1.3-2.9.3-.5.5-1.2.5-1.9 0-.4-.1-.7-.3-1-.3-.5-.8-.7-1.4-.7-.5 0-.9.1-1.3.3-.5.2-.8.5-1.2.9-.2.2-.4.4-.6.5-.1.1-.2.1-.2.1-.1 0-.1 0-.1-.1 0-.3.3-.8.3-1.2 0-.4-.3-.8-.7-.8-.2 0-.5.1-.6.3-.3.4-.4.9-.6 1.3l-.6 1.5c-.4 1.1-.8 1.9-1.3 2.9-.2.5-.4 1-.7 1.5-.1.3-.2.5-.4.8-.1.2-.2.5-.2.7.2.6.6.9.9.9m-6.1-1.1c-.2 0-.3 0-.5-.1-.4-.2-.6-.6-.7-1v-.5c0-.7.3-1.4.6-2.1.2-.4.5-.9.8-1.2.1-.2.4-.5.6-.5.2 0 .2.2.2.4 0 .9.1 1.4.3 1.8.2.5.5.9.9 1.3.1.1.3.3.3.4 0 .2-.3.4-.5.6-.3.3-.7.6-1.1.8-.3 0-.6.1-.9.1m3.2-3.1c-.3 0-.5-.7-.6-.9-.1-.3-.1-.5-.1-.8 0-.4.1-1 .3-1.4.1-.3.3-.7.6-.7.5 0 .6.7.6 1.2v.5c0 .4-.1.7-.2 1.1-.2.4-.3 1-.6 1zm-3.3 4.6c.9 0 1.9-.4 2.8-1.1.2-.2.5-.4.7-.7.2-.2.4-.5.6-.7.2-.2.4-.3.7-.3.3-.1.7-.1 1-.3.6-.2 1.1-.5 1.6-.8.6-.4 1.1-1 1.5-1.5.2-.3.5-.7.5-1 0-.4-.4-.7-.7-.7-.3 0-.5.1-.6.3-.1.2-.2.3-.3.5-.4.5-.9.9-1.4 1.3-.2.1-.6.3-.9.3-.2 0-.2-.1-.2-.2s.1-.4.1-.5c.1-.5.2-1.2.2-1.8 0-1.3-.5-2.9-2-2.9-.5 0-.9.2-1.3.4-.3.2-.5.3-.9.5-.7.2-1.4.6-1.9 1.1-.9.8-1.5 2-1.9 3.1-.2.5-.3 1.1-.3 1.7 0 .7.2 1.4.5 2 .5 1 1.3 1.3 2.2 1.3zm-8-.4c.4 0 .7 0 1.1-.1.7-.2 1.5-.4 2.2-.7.8-.4 1.6-1 2.3-1.6.6-.6 1.2-1.2 1.6-1.9.2-.4.8-1.1.8-1.4 0-.2-.1-.5-.4-.6-.1-.1-.3-.1-.5-.1s-.4 0-.6.4c-.2.3-.4.7-.6.9-.5.7-1 1.4-1.7 1.9-.8.6-1.1.8-1.3.8-.1 0-.2-.1-.2-.3v-.2c.1-.4 0-.6 0-1s0-.7-.1-1.1c-.1-.8-.2-1.7-.4-2.5-.1-.4-.1-.8-.1-1.2 0-.4.2-.8.2-1.2 0-.4-.2-.7-.5-.9-.1-.1-.3-.1-.4-.1-.6 0-1 .7-1.2 1.2-.4.7-.7 1.3-1.1 2-.2.4-.3.7-.5 1-.1.3-.4.6-.4.9 0 .3.5.7.8.7.1 0 .2 0 .3-.1.2-.1.4-.6.6-.9.1-.2.2-.5.3-.6.1-.2.2-.4.4-.4 0 0 .1 0 .1.1.1.1.1.4.2.5 0 .2.1.4.1.6.1.8.2 1.6.2 2.4 0 .7-.3 1.5-1 1.8-.2.1-.3.1-.5.1s-.4-.1-.6-.1c-.2-.1-.4-.2-.7-.2-.5 0-.7.3-.7.7 0 .1 0 .2.1.4.2.3.5.5.9.6.4.1.9.2 1.3.2zm-10.7-1.3c-.4 0-.6-.4-.6-.8 0-1.4.9-3.1 1.9-4.2.5-.6 1.1-1.1 1.8-1.4.3-.1.7-.3 1.1-.3.3 0 .6.1.6.5 0 .8-.7 1.6-1.1 2.2-.4.7-.9 1.3-1.4 2-.4.6-.9 1.2-1.5 1.6-.4.3-.6.4-.8.4zm-.2 1.6c.3 0 .6 0 .8-.1.7-.2 1.6-.9 2.1-1.5.2-.3.7-.9.9-.9.1 0 .1 0 .2.2.5.9.9 1.4 1.9 1.4.7 0 1.3-.4 1.8-.8s.9-.8 1.2-1.3c.6-.8 1.1-1.8 1.5-2.7.1-.2.1-.4.1-.6 0-.4-.2-.7-.6-.7-.4 0-.7.3-.9.7-.2.4-.4.8-.6 1.1-.4.7-.8 1.4-1.4 2-.3.3-.8.7-1.2.7-.3 0-.6-.2-.6-1 0-.6.2-1.3.4-1.9.2-.8.6-1.5.9-2.2.2-.4.5-.9.5-1.4 0-.4-.3-.7-.7-.7-.3 0-.5.2-.9.2s-.8-.2-1.2-.2c-.9 0-1.5.2-2.3.6-.8.4-1.6 1.1-2.2 1.8-1.2 1.4-2 3.3-2 5.1 0 .7.1 1.4.7 1.8.7.3 1.1.4 1.6.4m-7.3-5.3c-.1 0-.1-.1-.1-.2 0-.2.3-.6.3-.7.2-.3.5-.7.8-1 .3-.3.6-.5.9-.8.3-.2.7-.4 1-.4.1 0 .3 0 .3.3 0 .5-1 1.4-1.2 1.6-.3.3-.6.5-.9.7-.3.2-.7.5-1.1.5zm.2 5.3c.4 0 .9-.1 1.3-.1 1.6-.4 3.1-1.3 4.3-2.5.6-.6 1-1.2 1.5-1.9.2-.4.5-.8.7-1.2.1-.2.2-.4.2-.6 0-.1 0-.3-.1-.4-.1-.2-.4-.3-.6-.3-.1 0-.2 0-.3.1-.3.2-.5.6-.7.9-.4.7-.9 1.4-1.5 2-.5.5-1.1 1.1-1.8 1.5-.9.5-2 1-3 1-.7 0-1.4-.3-1.4-1.3 0-.2 0-.4.2-.5.3-.2.8-.3 1.1-.4.4-.1.8-.2 1.2-.4.4-.2.7-.4 1.1-.6.7-.4 1.3-.9 1.8-1.6.4-.5.7-1.2.7-1.9 0-1-.8-1.6-1.7-1.6-.4 0-.9.1-1.2.2-1.5.6-2.6 1.9-3.5 3.3-.6 1-1.3 2.3-1.3 3.5 0 .4.1.8.2 1.2.5 1.2 1.7 1.6 2.8 1.6zm-6.1-.2c.7 0 1.3-.3 1.8-.7 1.3-.9 2.5-2.4 3.3-3.8.2-.3.4-.8.6-1.1.1-.1.1-.3.1-.4 0-.2-.2-.5-.4-.6-.1-.1-.2-.1-.4-.1-.3 0-.4.1-.6.3-.2.4-.5.8-.7 1.2-.4.7-1 1.5-1.6 2.2-.3.3-1.4 1.4-2.1 1.4-.3 0-.4-.2-.4-.5v-.3c.2-.8.8-1.6 1.3-2.3.4-.6 1-1.2 1-2 0-1-.9-1.5-1.6-1.9-.3-.2-.8-.4-.8-.8 0-.2.1-.4.1-.6.1-.2.1-.5.1-.7 0-.5-.2-.9-.8-.9-.3 0-.6.1-.8.2-.5.3-.8 1-.8 1.6 0 .2 0 .3.1.5s.1.4.1.6v.1c0 .2-.1.4-.2.6-.2.4-.3.7-.5 1.1-.2.5-.4.8-.8 1.4-.2.4-.6 1-.9 1.5-.4.7-.7 1-.9 1.3-.1.2-.2.3-.2.6 0 .5.4.8.7.8.2 0 .4-.1.5-.2.1-.1.5-.7.9-1.4.3-.5.9-1.4 1.1-1.9.5-.8.6-1.1.7-1.2.2-.3.3-.7.5-1 .1-.2.3-.3.5-.3.1 0 .2 0 .4.1.3.2.9.5.9.9 0 .3-.4.7-.5.9-.3.4-.5.7-.7 1.1-.5.8-1.1 1.8-1.1 2.8.2.7 1 1.5 2.1 1.5m-20.8-1.4c-.4 0-.6-.4-.6-.8 0-1.4.9-3.1 1.9-4.2.5-.6 1.1-1.1 1.8-1.4.3-.1.7-.3 1.1-.3.3 0 .6.1.6.5 0 .8-.7 1.6-1.1 2.2-.4.7-.9 1.3-1.4 2-.4.6-.9 1.2-1.5 1.6-.4.3-.6.4-.8.4zm-.2 1.6c.3 0 .6 0 .8-.1.7-.2 1.6-.9 2.1-1.5.2-.3.7-.9.9-.9.1 0 .1 0 .2.2.5.9.9 1.4 2 1.4.7 0 1.3-.4 1.8-.8s.9-.8 1.2-1.3c.6-.8 1.1-1.8 1.5-2.7.1-.2.1-.4.1-.6 0-.4-.2-.7-.6-.7-.4 0-.7.3-.9.7-.2.4-.4.8-.6 1.1-.4.7-.8 1.4-1.4 2-.3.3-.8.7-1.2.7-.3 0-.6-.2-.6-1 0-.6.2-1.3.4-1.9.2-.8.6-1.5.9-2.2.2-.4.5-.9.5-1.4 0-.4-.3-.7-.7-.7-.3 0-.5.2-.9.2s-.8-.2-1.2-.2c-.9 0-1.5.2-2.3.6-.8.4-1.6 1.1-2.2 1.8-1.2 1.4-2 3.3-2 5.1 0 .7.1 1.4.7 1.8.6.3 1 .4 1.5.4m-12.1-.2c.7 0 1.3-.3 1.8-.7 1.3-.9 2.5-2.4 3.3-3.8.2-.3.4-.8.6-1.1.1-.1.1-.3.1-.4 0-.2-.2-.5-.4-.6-.1-.1-.2-.1-.4-.1-.3 0-.4.1-.6.3-.2.4-.4.8-.7 1.2-.4.7-1 1.5-1.6 2.2-.3.3-1.4 1.4-2.1 1.4-.3 0-.4-.2-.4-.5v-.3c.2-.8.8-1.6 1.3-2.3.4-.6 1-1.2 1-2 0-1-.9-1.5-1.6-1.9-.3-.2-.8-.4-.8-.8 0-.2.1-.4.1-.6.1-.2.1-.5.1-.7 0-.5-.2-.9-.8-.9-.3 0-.6.1-.8.2-.5.3-.8 1-.8 1.6 0 .2 0 .3.1.5s.1.4.1.6v.1c0 .2-.1.4-.2.6l-.6 1.2c-.2.3-.4.6-.4.9 0 .3.5.7.8.7.1 0 .2 0 .3-.1.2-.1.4-.6.5-.9.2-.3.3-.7.5-1.1.1-.2.3-.3.5-.3.1 0 .2 0 .4.1.3.2.9.4.9.9 0 .3-.4.7-.5.9-.2.4-.5.7-.7 1.1-.5.8-1.1 1.8-1.1 2.8.2 1 1 1.8 2.1 1.8zm-11.2-1.2c-.2 0-.3 0-.5-.1-.4-.2-.6-.6-.7-1v-.5c0-.7.3-1.4.6-2.1.2-.4.5-.9.8-1.2.1-.2.4-.5.6-.5.2 0 .2.2.2.4 0 .9.1 1.4.3 1.8.2.5.5.9.9 1.3.1.1.3.3.3.4 0 .2-.3.4-.5.6-.3.3-.7.6-1.1.8-.3 0-.6.1-.9.1m3.1-3.1c-.3 0-.5-.7-.6-.9-.1-.3-.1-.5-.1-.8 0-.4.1-1 .3-1.4.1-.3.3-.7.6-.7.5 0 .6.7.6 1.2v.5c0 .4-.1.7-.2 1.1-.1.4-.3 1-.6 1zm-3.3 4.6c.9 0 1.9-.4 2.8-1.1.2-.2.5-.4.7-.7.2-.2.4-.5.6-.7.2-.2.4-.3.7-.3.3-.1.7-.1 1-.3.6-.2 1.1-.5 1.6-.8.6-.4 1.1-1 1.5-1.5.2-.3.5-.7.5-1 0-.4-.4-.7-.7-.7-.3 0-.5.1-.6.3-.1.2-.2.3-.3.5-.4.5-.9.9-1.4 1.3-.2.1-.6.3-.9.3-.2 0-.2-.1-.2-.2s.1-.4.1-.5c.1-.5.2-1.2.2-1.8 0-1.3-.5-2.9-2-2.9-.5 0-.9.2-1.3.4-.3.2-.5.3-.9.5-.7.2-1.4.6-1.9 1.1-.9.8-1.5 2-1.9 3.1-.2.5-.3 1.1-.3 1.7 0 .7.2 1.4.5 2 .5 1 1.3 1.3 2.2 1.3zm-9 8c-.4 0-.4-.5-.5-.8V61c.1-.7.2-1.5.3-2.2.1-.8.3-1.5.5-2.3.2-.8.4-1.5.6-2.2.1-.3.2-.7.3-1 .1-.2.1-.4.2-.5.1-.1.1-.4.3-.4.2 0 .3 1 .3 1.8 0 1.6-.2 3.3-.5 4.9-.1.8-.3 1.6-.6 2.3-.1.4-.3.8-.5 1.1.1 0-.1.4-.4.4m-.2 1.5c.5 0 1.1-.2 1.4-.6.9-.8 1.4-2.1 1.7-3.2.3-1.2.5-2.4.6-3.6.1-.9.1-1.8.1-2.7v-1.7c0-.3.1-.6.5-.6h.6c.4 0 .8-.1 1.2-.3 1.1-.5 2.1-1.5 2.7-2.5.1-.2.2-.3.2-.6s-.4-.7-.8-.7c-.3 0-.4.1-.6.4-.1.2-.3.4-.4.6-.6.8-1.5 1.7-2.6 1.7-1 0-1.4-.8-1.4-1.5 0-.5.2-1 .4-1.5.5-1.2 1.1-2.4 1.6-3.5s1.1-2.3 1.7-3.4c.3-.5.7-1.1 1-1.6.3-.5.7-1.1.7-1.7 0-.4-.3-.8-.7-.8-.7 0-1 .8-1.3 1.3-.6 1-1.2 2-1.7 3.1-.3.6-.6 1.1-.9 1.7-.6 1.3-1.1 2.3-1.6 3.5-.2.6-.4 1.2-.7 1.6-.2.2-.5.3-.6.6-.1.2-.1.3-.1.5v.3c-.1.6-.3 1.4-.5 1.9-.4 1.2-.8 2.1-1.2 3.3-.8 2.4-1.3 4.9-1.3 7.2 0 .7.1 1.3.3 1.9.5.5 1 .9 1.7.9zM79.7 49.5c-.1 0-.1-.1-.1-.2 0-.2.3-.6.3-.7.2-.3.5-.7.8-1 .3-.3.6-.5.9-.8.3-.2.7-.4 1-.4.1 0 .3 0 .3.3 0 .5-1 1.4-1.2 1.6-.3.3-.6.5-.9.7-.3.2-.7.5-1.1.5zm.2 5.3c.4 0 .9-.1 1.3-.1 1.6-.4 3.1-1.3 4.3-2.5.6-.6 1-1.2 1.5-1.9.2-.4.5-.8.7-1.2.1-.2.2-.4.2-.6 0-.1 0-.3-.1-.4-.1-.2-.4-.3-.6-.3-.1 0-.2 0-.3.1-.3.2-.5.6-.7.9-.4.7-.9 1.4-1.5 2-.5.5-1.1 1.1-1.8 1.5-.9.5-2 1-3 1-.7 0-1.4-.3-1.4-1.3 0-.2 0-.4.2-.5.3-.2.8-.3 1.1-.4.4-.1.8-.2 1.2-.4.4-.2.7-.4 1.1-.6.7-.4 1.3-.9 1.8-1.6.4-.5.7-1.2.7-1.9 0-1-.8-1.6-1.7-1.6-.4 0-.9.1-1.2.2-1.5.6-2.6 1.9-3.5 3.3-.6 1-1.3 2.3-1.3 3.5 0 .4.1.8.2 1.2.5 1.2 1.6 1.6 2.8 1.6zm-6.2-.2c.7 0 1.3-.3 1.8-.7 1.3-.9 2.5-2.4 3.3-3.8.2-.3.4-.8.6-1.1.1-.1.1-.3.1-.4 0-.2-.2-.5-.4-.6h-.3c-.3 0-.4.1-.6.3-.2.4-.5.8-.7 1.2-.4.7-1 1.5-1.6 2.2-.3.3-1.4 1.4-2.1 1.4-.3 0-.4-.2-.4-.5v-.3c.2-.8.8-1.6 1.3-2.3.4-.6 1-1.2 1-2 0-1-.9-1.5-1.6-1.9-.3-.2-.8-.4-.8-.8 0-.2.1-.4.1-.6 0-.2.1-.5.1-.7 0-.5-.2-.9-.8-.9-.3 0-.6.1-.8.2-.5.3-.8 1-.8 1.6 0 .2 0 .3.1.5s.1.4.1.6v.1c0 .2-.1.4-.2.6l-.6 1.2c-.2.3-.4.6-.4.9 0 .3.5.7.8.7.1 0 .2 0 .3-.1.2-.1.4-.6.5-.9.2-.3.3-.7.5-1.1.1-.2.3-.3.5-.3.1 0 .2 0 .4.1.3.2.9.4.9.9 0 .3-.4.7-.5.9-.3.4-.5.7-.7 1.1-.5.8-1.1 1.8-1.1 2.8.2.9 1 1.7 2 1.7zm-10.1-5.1c-.1 0-.1-.1-.1-.2 0-.2.3-.6.3-.7.2-.3.5-.7.8-1 .3-.3.6-.5.9-.8.3-.2.7-.4 1-.4.1 0 .3 0 .3.3 0 .5-1 1.4-1.2 1.6-.3.3-.6.5-.9.7-.3.2-.7.5-1.1.5zm.2 5.3c.4 0 .9-.1 1.3-.1 1.6-.4 3.1-1.3 4.3-2.5.6-.6 1-1.2 1.5-1.9.2-.4.5-.8.7-1.2.1-.2.2-.4.2-.6 0-.1 0-.3-.1-.4-.1-.2-.4-.3-.6-.3-.1 0-.2 0-.3.1-.3.2-.5.6-.7.9-.4.7-.9 1.4-1.5 2-.5.5-1.1 1.1-1.8 1.5-.9.5-2 1-3 1-.7 0-1.4-.3-1.4-1.3 0-.2 0-.4.2-.5.3-.2.8-.3 1.1-.4.4-.1.8-.2 1.2-.4.4-.2.7-.4 1.1-.6.7-.4 1.3-.9 1.8-1.6.4-.5.7-1.2.7-1.9 0-1-.8-1.6-1.7-1.6-.4 0-.9.1-1.2.2-1.5.6-2.6 1.9-3.5 3.3-.6 1-1.3 2.3-1.3 3.5 0 .4.1.8.2 1.2.5 1.2 1.6 1.6 2.8 1.6zm-8.6 1.4c.4 0 .7-.2.8-.6.2-.5.4-1.1.5-1.6.3-1.2.6-2 1.1-3.2.1-.2.3-.8.4-1 .1-.3.3-.4.7-.4h.4c.2 0 .4 0 .6-.2.2-.2.3-.4.3-.7 0-.2-.1-.4-.2-.6-.2-.2-.4-.2-.6-.3-.2 0-.2 0-.2-.1 0-.3.2-.8.3-1 .1-.3.3-.6.4-.9.2-.6.4-1 .6-1.5.5-1 1-2.1 1.5-3.1.3-.5.5-1 .9-1.4.2-.2.4-.5.5-.7.2-.2.4-.4.5-.7.1-.2.1-.3.1-.5 0-.4-.3-.8-.8-.8-.3 0-.6.1-.8.3-.4.3-.7.7-.9 1.1-.3.4-.6.9-.8 1.4-.5.9-1 1.8-1.4 2.8-.5 1.1-.9 2.2-1.3 3.3-.1.3-.2.5-.3.9-.1.2-.2.5-.3.7-.1.2-.3.4-.7.4H56c-.6 0-1.1 0-1.7.1h-2.2c-.1 0-.3 0-.3-.2 0-.1.1-.3.1-.3.2-.6.4-1.1.5-1.7.3-1.1.5-2.1.7-3.2.1-.5.1-1 .1-1.5 0-1.4-.3-2.8-1.6-3.5-.6-.3-1.2-.5-1.9-.5-.4 0-.7 0-1.1.1-.9.2-1.7.6-2.5 1.2-.9.6-1.7 1.3-2.4 2.1-.6.8-1.1 1.6-1.4 2.5-.2.6-.3 1.2-.3 1.8 0 .4.1.9.2 1.3.1.3.3.6.6.8.2.1.4.2.5.2.5 0 .8-.4.8-.8 0-.1 0-.2-.1-.3-.1-.2-.3-.5-.3-.7v-.4c0-.2 0-.5.1-.7.2-.9.7-1.7 1.3-2.5.7-.8 1.5-1.5 2.5-2.1.7-.4 1.5-.7 2.3-.7.7 0 1.1.2 1.3.6.2.3.3.8.3 1.4 0 1.2-.2 2.4-.5 3.6-.2.6-.3 1.2-.5 1.7l-.3.9c-.1.4-.3 1-.6 1.2-.2.1-.6.2-.8.2-.3 0-.6.1-.8.1-.2 0-.4.1-.6.2-.3.2-.4.4-.4.7 0 .4.4.7.8.7.1 0 .3 0 .5-.1.2 0 .3-.1.4-.1.1 0 .1 0 .1.1s-.1.2-.1.3c-.1.3-.2.5-.4.8l-.9 1.5c-.3.5-.7 1-1 1.5-.3.4-.6.9-.6 1.4 0 .5.3.9.8.9.6 0 .9-.5 1.1-.9.6-.9 1.2-1.9 1.8-2.9.3-.5.6-1 .8-1.6.1-.3.2-.6.3-.8.1-.2.2-.5.7-.5.2 0 .5 0 .7-.1.3 0 .6 0 .8-.1.6 0 1 0 1.6-.1h1.5c.1 0 .3 0 .3.2 0 .1 0 .2-.1.3-.1.2-.2.4-.2.6-.1.3-.2.5-.3.8l-.3.9c-.2.6-.3 1-.5 1.5-.1.3-.4 1.2-.4 1.7.1.4.3.8.8.8z"/></svg>